<?xml version="1.0" encoding="UTF-8" standalone="no"?>
<!-- Created with Inkscape (http://www.inkscape.org/) -->

<svg
   version="1.1"
   id="svg834"
   xml:space="preserve"
   width="582.44348"
   height="396.10938"
   viewBox="0 0 582.44348 396.10937"
   sodipodi:docname="phase_trans_chinese.svg"
   inkscape:version="1.2.1 (9c6d41e410, 2022-07-14)"
   xmlns:inkscape="http://www.inkscape.org/namespaces/inkscape"
   xmlns:sodipodi="http://sodipodi.sourceforge.net/DTD/sodipodi-0.dtd"
   xmlns="http://www.w3.org/2000/svg"
   xmlns:svg="http://www.w3.org/2000/svg"
   xmlns:rdf="http://www.w3.org/1999/02/22-rdf-syntax-ns#"
   xmlns:cc="http://creativecommons.org/ns#"
   xmlns:dc="http://purl.org/dc/elements/1.1/"><metadata
     id="metadata840"><rdf:RDF><cc:Work
         rdf:about=""><dc:format>image/svg+xml</dc:format><dc:type
           rdf:resource="http://purl.org/dc/dcmitype/StillImage" /></cc:Work></rdf:RDF></metadata><defs
     id="defs838" /><sodipodi:namedview
     pagecolor="#ffffff"
     bordercolor="#666666"
     borderopacity="1"
     objecttolerance="10"
     gridtolerance="10"
     guidetolerance="10"
     inkscape:pageopacity="0"
     inkscape:pageshadow="2"
     inkscape:window-width="1920"
     inkscape:window-height="986"
     id="namedview836"
     showgrid="false"
     inkscape:zoom="1.28"
     inkscape:cx="226.5625"
     inkscape:cy="191.40625"
     inkscape:window-x="-11"
     inkscape:window-y="-11"
     inkscape:window-maximized="1"
     inkscape:current-layer="g844"
     inkscape:showpageshadow="2"
     inkscape:pagecheckerboard="0"
     inkscape:deskcolor="#d1d1d1" /><g
     id="g842"
     inkscape:groupmode="layer"
     inkscape:label="ink_ext_XXXXXX"
     transform="matrix(1.3333333,0,0,-1.3333333,-0.11979173,397.33332)"><g
       id="g844"
       transform="scale(0.1)"><path
   d="M 258.051,185.039 H 2958.05"
   style="fill:none;stroke:#000000;stroke-width:21.685;stroke-linecap:butt;stroke-linejoin:miter;stroke-miterlimit:4;stroke-dasharray:none;stroke-opacity:1"
   id="path846"
   inkscape:connector-curvature="0" /><path
   d="m 2871.33,185.039 -43.36,-43.359 151.76,43.359 -151.76,43.359 z"
   style="fill:#000000;fill-opacity:1;fill-rule:evenodd;stroke:none"
   id="path848"
   inkscape:connector-curvature="0" /><path
   d="m 2871.33,185.039 -43.36,-43.359 151.76,43.359 -151.76,43.359 z"
   style="fill:none;stroke:#000000;stroke-width:11.5654;stroke-linecap:butt;stroke-linejoin:miter;stroke-miterlimit:4;stroke-dasharray:none;stroke-opacity:1"
   id="path850"
   inkscape:connector-curvature="0" /><path
   d="M 258.051,185.039 V 2885.04"
   style="fill:none;stroke:#000000;stroke-width:21.685;stroke-linecap:butt;stroke-linejoin:miter;stroke-miterlimit:4;stroke-dasharray:none;stroke-opacity:1"
   id="path852"
   inkscape:connector-curvature="0" /><path
   d="m 258.051,2798.28 43.398,-43.36 -43.398,151.8 -43.36,-151.8 z"
   style="fill:#000000;fill-opacity:1;fill-rule:evenodd;stroke:none"
   id="path854"
   inkscape:connector-curvature="0" /><path
   d="m 258.051,2798.28 43.398,-43.36 -43.398,151.8 -43.36,-151.8 z"
   style="fill:none;stroke:#000000;stroke-width:11.5654;stroke-linecap:butt;stroke-linejoin:miter;stroke-miterlimit:4;stroke-dasharray:none;stroke-opacity:1"
   id="path856"
   inkscape:connector-curvature="0" /><path
   d="M 247.422,1468.59 H 2947.42"
   style="fill:none;stroke:#000000;stroke-width:21.685;stroke-linecap:butt;stroke-linejoin:miter;stroke-miterlimit:4;stroke-dasharray:43.3701, 86.7402;stroke-dashoffset:0;stroke-opacity:1"
   id="path858"
   inkscape:connector-curvature="0" /><path
   d="M 1528.79,182.891 V 2762.89"
   style="fill:none;stroke:#000000;stroke-width:21.685;stroke-linecap:butt;stroke-linejoin:miter;stroke-miterlimit:4;stroke-dasharray:43.3701, 86.7402;stroke-dashoffset:0;stroke-opacity:1"
   id="path860"
   inkscape:connector-curvature="0"
   sodipodi:nodetypes="cc" /><path
   d="m 376.40964,1731.9084 v 0.15 l -0.082,0.12 v 0.47 l -0.07,0.12 v 0.15 l -0.078,0.12 -0.082,0.16 -0.078,0.19 -0.082,0.12 -0.039,0.19 -0.071,0.16 -0.16,0.2 -0.16,0.11 -0.109,0.16 -0.161,0.19 -0.078,0.08 -0.16,0.04 -0.07,0.08 -0.039,0.08 -0.16,0.04 -0.082,0.08 -0.149,0.07 -0.082,0.08 -0.117,0.04 -0.152,0.08 h -0.161 l -0.121,0.08 -0.148,0.04 h -0.16 l -0.16,0.07 -0.11,0.08 h -0.39 l -0.2,0.04 h -0.39 l -0.2,0.08 h -0.351 c -8.43,0 -34.8009,-2.74 -44.1798,-3.32 -2.9687,-0.35 -6.9883,-0.66 -6.9883,-6.68 0,-3.98 3.3594,-3.98 8.7891,-3.98 17.3789,0 18.0508,-2.27 18.0508,-5.63 0,-2.38 -3.2813,-13.67 -5.1211,-20.63 l -29.6094,-108.32 c -4.3008,-16.68 -5.8203,-21.99 -5.8203,-33.55 0,-31.56 19.1797,-52.23 45.9805,-52.23 v 7.35 c -12.3516,0 -24.2617,8.94 -24.2617,33.55 0,6.33 0,12.62 5.7421,33.56 l 7.9688,30.62 c 2.1914,7.31 2.1914,7.93 5.4687,11.6 17.7306,21.53 34.0626,26.53 43.4416,26.53 13.082,0 22.808,-9.85 22.808,-31.25 0,-19.57 -11.988,-57.74 -18.437,-70.47 -11.91,-22.23 -28.633,-34.14 -42.7305,-34.14 v -7.35 c 42.7305,0 87.1795,49.5 87.1795,97.39 0,30.23 -19.18,53.12 -48.082,53.12 -16.558,0 -31.488,-9.57 -42.3788,-19.88 z"
   style="fill:#000000;fill-opacity:1;fill-rule:evenodd;stroke:none"
   id="path862"
   inkscape:connector-curvature="0" /><path
   d="m 8.58984,2915.62 0.58985,1.8 0.66015,1.8 0.67186,1.64 0.7383,1.72 0.7383,1.6 0.7812,1.52 0.7813,1.49 0.8281,1.44 0.8516,1.41 0.8593,1.37 0.8594,1.29 0.9024,1.25 1.8789,2.34 1.9101,2.19 1.9883,1.99 2.0313,1.87 2.0703,1.64 2.1093,1.53 2.1094,1.44 2.1524,1.25 2.0273,1.1 2.1524,1.01 2.0273,0.9 1.9922,0.78 2,0.67 1.9101,0.58 1.8399,0.47 1.789,0.39 1.6797,0.35 1.5703,0.28 1.4805,0.23 1.3711,0.12 1.25,0.15 1.0469,0.04 0.9414,0.08 0.8203,0.08 h 1.0508 c 49.7302,0 53.3592,-60.04 53.3592,-87.15 0,-21.01 -1.64,-26.8 -3.898,-33.67 -7.313,-24.96 -17.2307,-64.77 -17.2307,-73.63 0,-3.79 1.6796,-6.29 4.3789,-6.29 4.2498,0 6.9488,7.65 10.5388,20.66 7.539,28.83 10.86,48.32 12.231,58.91 0.59,4.57 1.211,8.94 2.582,13.51 10.539,33.87 31.679,84.93 44.918,112.07 2.23,4.07 6.211,11.68 6.211,13.01 0,3.44 -3.243,3.44 -3.981,3.44 -0.941,0 -2.969,0 -3.91,-2.42 -17.148,-32.54 -30.309,-66.84 -43.551,-101.53 -0.359,10.67 -0.59,36.68 -13.597,70.08 -7.813,20.86 -21.0512,37.58 -43.8325,37.58 -41.1679,0 -64.371062,-52.03 -64.371062,-62.66 0,-3.43 3.011722,-3.43 6.332032,-3.43 z"
   style="fill:#000000;fill-opacity:1;fill-rule:evenodd;stroke:none"
   id="path864"
   inkscape:connector-curvature="0" /><path
   d="m 3166.09,223.238 -0.07,1.992 -0.12,1.961 -0.24,1.868 -0.35,1.921 -0.35,1.829 -0.55,1.8 -0.58,1.801 -0.67,1.75 -0.78,1.68 -0.86,1.64 -0.9,1.641 -1.01,1.527 -1.06,1.524 -1.13,1.449 -1.21,1.399 -1.33,1.371 -1.36,1.25 -1.45,1.211 -1.48,1.128 -1.57,1.141 -1.68,0.969 -1.68,0.941 -1.75,0.86 -1.84,0.781 -1.87,0.668 -1.92,0.621 -2.03,0.508 -2.03,0.472 -2.11,0.309 -2.07,0.27 -2.23,0.121 -2.3,0.078 c -17.31,0 -25.63,-4.528 -36.13,-11.797 -16.33,-11.172 -32.82,-38.442 -38.44,-59.723 L 3003.48,11.9883 c -0.39,-1.0469 1.13,-2.80861 3.51,-2.80861 2.35,0 3.28,0.62109 3.6,1.41011 l 20.86,77.461 c 5.7,-16.8399 18.82,-27.2305 40.62,-27.2305 l -0.9,6.1289 c -22.65,0 -34.02,16.2891 -34.02,36.2888 0,2.703 0,6.922 1.48,12.352 l 19.1,71.012 c 6.61,24.097 28.13,68.668 63.91,68.668 17.31,0 27.81,-8.711 27.81,-25.5 0,-19.688 -11.33,-39.848 -26.91,-48.598 -8.05,2.808 -14.02,3.398 -23.01,3.398 -6.29,0 -22.97,0.2 -22.97,-9.019 -0.23,-7.821 15.16,-6.922 20.63,-6.922 l 0.82,6.141 c -4.14,0 -10.12,-0.36 -13.13,1.05 0.67,2.809 11.33,2.301 14.65,2.301 6.29,0 8.99,0 12.81,-1.402 -3.82,-1.41 -7.14,-1.949 -14.33,-1.949 l -0.82,-6.141 c 11.01,0 15.51,0.281 24.45,3.601 11.33,-10.16 12.81,-18.832 13.16,-31.64 0.63,-16.328 -6.64,-37.352 -14.96,-48.3205 -11.64,-15.1601 -31.64,-25.3203 -48.67,-25.3203 l 0.9,-6.1289 c 21.8,0 44.22,9.8789 57.58,22.1914 14.33,12.8867 23.98,30.8593 23.98,51.6363 0,20.153 -11.01,34.762 -21.79,41.801 17.3,9.211 34.25,26.641 34.25,46.789 z"
   style="fill:#000000;fill-opacity:1;fill-rule:evenodd;stroke:none"
   id="path866"
   inkscape:connector-curvature="0" /><path
   d="m 1730.1591,425.74428 -0.16,3.828 -0.23,1.801 -0.32,1.871 -0.31,1.801 -0.43,1.758 -0.54,1.761 -0.55,1.68 -0.67,1.641 -0.74,1.597 -0.78,1.563 -0.86,1.488 -0.94,1.481 -0.97,1.41 -1.06,1.359 -1.13,1.332 -1.17,1.168 -1.25,1.211 -1.29,1.102 -1.37,1.09 -2.89,1.878 -1.48,0.782 -1.6,0.777 -1.61,0.66 -1.68,0.59 -1.75,0.512 -1.76,0.429 -1.8,0.309 -1.8,0.27 -1.91,0.121 -1.99,0.082 c -14.92,0 -22.11,-4.383 -31.17,-11.453 -14.11,-10.86 -28.32,-37.297 -33.21,-57.93 l -40.93,-172.8477 c -0.32,-1.0508 0.97,-2.7305 3.04,-2.7305 2.03,0 2.85,0.5781 3.09,1.3594 l 18.01,75.1211 c 4.92,-16.3321 16.25,-26.4102 35.07,-26.4102 l -0.78,5.9805 c -19.57,0 -29.37,15.7773 -29.37,35.1604 0,2.617 0,6.718 1.29,11.988 l 16.48,68.871 c 5.7,23.399 24.26,66.641 55.12,66.641 14.96,0 24.02,-8.481 24.02,-24.731 0,-19.14 -9.8,-38.672 -23.24,-47.152 -6.91,2.742 -12.11,3.281 -19.84,3.281 -5.43,0 -19.81,0.199 -19.81,-8.75 -0.19,-7.57 13.09,-6.711 17.78,-6.711 l 0.74,5.93 c -3.6,0 -8.75,-0.309 -11.33,1.062 0.55,2.731 9.76,2.219 12.62,2.219 5.43,0 7.73,0 11.05,-1.359 -3.32,-1.371 -6.13,-1.922 -12.34,-1.922 l -0.74,-5.93 c 9.53,0 13.39,0.27 21.09,3.473 9.8,-9.801 11.09,-18.242 11.41,-30.66 0.5,-15.864 -5.75,-36.25 -12.93,-46.8831 -10.04,-14.7187 -27.31,-24.5273 -42,-24.5273 l 0.78,-5.9805 c 18.79,0 38.17,9.5781 49.69,21.5273 12.35,12.543 20.67,29.9606 20.67,50.1216 0,19.531 -9.5,33.71 -18.83,40.5 14.96,8.992 29.61,25.859 29.61,45.39 z"
   style="fill:#000000;fill-opacity:1;fill-rule:evenodd;stroke:none"
   id="path868"
   inkscape:connector-curvature="0" /><path
   d="m 1782.1104,475.23879 1.37,0.671 1.32,0.579 1.25,0.589 2.43,1.09 1.13,0.551 2.19,1.012 1.01,0.429 0.98,0.43 0.94,0.43 0.93,0.39 0.86,0.43 0.86,0.36 0.82,0.351 0.78,0.348 0.71,0.312 0.74,0.309 0.7,0.359 0.63,0.27 0.66,0.312 0.63,0.27 0.58,0.281 0.55,0.227 0.58,0.281 0.51,0.191 0.98,0.508 0.94,0.43 0.82,0.429 c 3.51,1.481 5.11,2.262 5.11,5.903 0,3.238 -2.3,6.09 -5.58,6.09 -1.29,0 -1.6,0 -3.75,-1.719 l -24.53,-17.301 2.69,28.117 c 0.43,3.442 0,8.211 -5.43,8.211 -2.15,0 -5.58,-1.527 -5.58,-5.668 0,-1.761 0.74,-7.461 0.9,-9.371 0.39,-3.211 1.64,-17 2.07,-21.289 l -24.38,17.301 c -1.87,1.098 -2.3,1.719 -3.91,1.719 -3.32,0 -5.7,-2.852 -5.7,-6.09 0,-3.789 2.23,-4.731 3.83,-5.512 l 27.19,-11.949 c -14.77,-6.961 -21.41,-9.57 -25.9,-11.879 -3.4,-1.563 -5.12,-2.34 -5.12,-5.902 0,-3.239 2.38,-6.047 5.7,-6.047 1.18,0 1.61,0 3.72,1.718 l 24.57,17.301 -2.97,-30.66 c 0,-4.141 3.43,-5.672 5.58,-5.672 2.19,0 5.59,1.531 5.59,5.672 0,1.75 -0.7,7.461 -0.86,9.328 -0.31,3.25 -1.68,16.922 -1.99,21.332 l 21.56,-15.23 c 4.73,-3.789 5.12,-3.789 6.72,-3.789 3.28,0 5.58,2.808 5.58,6.047 0,3.832 -2.14,4.773 -3.75,5.55 z"
   style="fill:#000000;fill-opacity:1;fill-rule:evenodd;stroke:none"
   id="path870"
   inkscape:connector-curvature="0" /><path
   d="M 1546.45,1484.06 H 2859.1933 V 2700.392 H 1546.45 Z"
   style="fill:#00aae4;fill-opacity:1;fill-rule:nonzero;stroke:none;stroke-width:0.984457"
   id="path872"
   inkscape:connector-curvature="0" /><path
   d="M 1529.8767,1471.1317 2872.23,1469.06 V 2711.7625 H 1536.0917 Z"
   style="fill:none;stroke:#80a700;stroke-width:22.6209;stroke-linecap:butt;stroke-linejoin:miter;stroke-miterlimit:4;stroke-dasharray:45.2418, 90.4836;stroke-dashoffset:0;stroke-opacity:1"
   id="path874"
   inkscape:connector-curvature="0"
   sodipodi:nodetypes="ccccc" /><text
   id="text880"
   style="font-variant:normal;font-size:200px;font-family:f-0;-inkscape-font-specification:f-0-0;writing-mode:lr-tb;fill:#000000;fill-opacity:1;fill-rule:nonzero;stroke:none;stroke-width:8.9032"
   x="3557.6536"
   y="-1638.1561"
   transform="scale(1,-1)"><tspan
     id="tspan878"
     sodipodi:role="line"
     style="font-style:normal;font-variant:normal;font-weight:normal;font-stretch:normal;font-size:200px;font-family:SimSun;-inkscape-font-specification:SimSun;stroke-width:8.9032"
     x="3557.6536"
     y="-1638.1561">可恢复</tspan></text>

<text
   id="text888"
   style="font-variant:normal;font-size:387.957px;font-family:f-0;-inkscape-font-specification:f-0-0;writing-mode:lr-tb;fill:#000000;fill-opacity:1;fill-rule:nonzero;stroke:none;stroke-width:8.90701"
   transform="scale(1.122711,-0.89070117)"
   x="615.5235"
   y="-2230.3335"><tspan
     id="tspan886"
     sodipodi:role="line"
     y="-2230.3335"
     x="615.5235 766.4389"
     style="stroke-width:8.90701">II</tspan></text><text
   id="text888-9"
   style="font-variant:normal;font-size:387.957px;font-family:f-0;-inkscape-font-specification:f-0-0;writing-mode:lr-tb;fill:#000000;fill-opacity:1;fill-rule:nonzero;stroke:none;stroke-width:8.90701"
   transform="scale(1.122711,-0.89070117)"
   x="1889.9999"
   y="-2225.4805"><tspan
     id="tspan886-7"
     sodipodi:role="line"
     x="1889.9999"
     style="stroke-width:8.90701"
     y="-2225.4805">I</tspan></text>
<text
   id="text892"
   style="font-variant:normal;font-size:352.966px;font-family:f-0;-inkscape-font-specification:f-0-0;writing-mode:lr-tb;fill:#000000;fill-opacity:1;fill-rule:nonzero;stroke:none;stroke-width:9.42181"
   transform="scale(1.061367,-0.94218113)"
   x="614.05902"
   y="-820.70209"><tspan
     id="tspan890"
     sodipodi:role="line"
     y="-820.70209"
     x="614.05902 751.3634 888.31427"
     style="stroke-width:9.42181">III</tspan></text>

<text
   id="text900"
   style="font-variant:normal;font-size:267.727px;font-family:f-0;-inkscape-font-specification:f-0-0;writing-mode:lr-tb;fill:#000000;fill-opacity:1;fill-rule:nonzero;stroke:none;stroke-width:9.92279"
   transform="scale(0.99227918,-1.0077809)"
   x="2825.0652"
   y="-1118.12"><tspan
     id="tspan898"
     sodipodi:role="line"
     y="-1118.12"
     x="2825.0652 2929.2092 3025.8586 3115.0117 3204.1648 3294.1211 3390.7705"
     style="stroke-width:9.92279">II - IV</tspan></text><text
   id="text900-1"
   style="font-variant:normal;font-size:267.727px;font-family:f-0;-inkscape-font-specification:f-0-0;writing-mode:lr-tb;fill:#000000;fill-opacity:1;fill-rule:nonzero;stroke:none;stroke-width:9.92279"
   transform="scale(0.99227918,-1.0077809)"
   x="3413.1929"
   y="-1590.9011"><tspan
     id="tspan898-7"
     sodipodi:role="line"
     style="stroke-width:9.92279"
     x="3413.1929"
     y="-1590.9011">I</tspan></text>
<text
   id="text904"
   style="font-variant:normal;font-size:200px;font-family:f-0;-inkscape-font-specification:f-0-0;writing-mode:lr-tb;fill:#000000;fill-opacity:1;fill-rule:nonzero;stroke:none;stroke-width:8.76335"
   transform="scale(1,-1)"
   x="3556.0874"
   y="-1149.6492"><tspan
     id="tspan902"
     sodipodi:role="line"
     style="font-style:normal;font-variant:normal;font-weight:normal;font-stretch:normal;font-size:200px;font-family:SimSun;-inkscape-font-specification:SimSun;stroke-width:8.76335"
     x="3556.0874"
     y="-1149.6492">不可恢复</tspan></text>
<text
   id="text908"
   style="font-variant:normal;font-size:352.966px;font-family:f-0;-inkscape-font-specification:f-0-0;writing-mode:lr-tb;fill:#000000;fill-opacity:1;fill-rule:nonzero;stroke:none;stroke-width:9.42181"
   transform="scale(1.061367,-0.94218113)"
   x="1882.8925"
   y="-826.80914"><tspan
     id="tspan906"
     sodipodi:role="line"
     y="-826.80914"
     x="1882.8925 2010.3132"
     style="stroke-width:9.42181">IV</tspan></text>
</g></g></svg>
